<svg xmlns="http://www.w3.org/2000/svg" width="211.9" height="48.41" viewBox="0 0 211.9 48.41"><defs><style>.cls-1{fill:#ce2229;}.cls-2{fill:#007ec5;}.cls-3{fill:none;}</style></defs><title>Asset 1</title><g id="Layer_2" data-name="Layer 2"><g id="Layer_1-2" data-name="Layer 1"><rect class="cls-1" x="9.13" y="13.9" width="14.75" height="36" rx="3.45" ry="3.45" transform="translate(-17.72 21.02) rotate(-45)"/><rect class="cls-2" x="14.96" y="2.47" width="18.85" height="18.85" rx="3.45" ry="3.45" transform="translate(-1.27 20.73) rotate(-45)"/><rect class="cls-2" x="28.94" y="19.06" width="18.85" height="13.63" rx="3.45" ry="3.45" transform="translate(-7.06 34.7) rotate(-45)"/><line class="cls-3" x1="89.98" y1="12.35" x2="89.98" y2="17.43"/><line class="cls-3" x1="99.64" y1="17.43" x2="96.7" y2="12.35"/><line class="cls-3" x1="113.43" y1="12.35" x2="110.37" y2="17.43"/><line class="cls-3" x1="120.34" y1="17.43" x2="120.34" y2="12.35"/><path class="cls-3" d="M149.2,12.35a10.59,10.59,0,0,1,.14,1.75,9.66,9.66,0,0,1-.55,3.33"/><line class="cls-3" x1="164.63" y1="17.43" x2="164.63" y2="12.35"/><line class="cls-3" x1="125.61" y1="12.35" x2="125.61" y2="17.43"/><line class="cls-3" x1="131.95" y1="17.43" x2="131.95" y2="12.35"/><line class="cls-3" x1="102.32" y1="28.59" x2="102.32" y2="23.51"/><line class="cls-3" x1="89.98" y1="23.51" x2="89.98" y2="28.59"/><line class="cls-3" x1="131.95" y1="28.59" x2="131.95" y2="23.51"/><line class="cls-3" x1="125.61" y1="23.51" x2="125.61" y2="28.59"/><line class="cls-3" x1="164.63" y1="28.59" x2="164.63" y2="23.51"/><line class="cls-3" x1="120.34" y1="28.59" x2="120.34" y2="23.51"/><line class="cls-3" x1="107.59" y1="23.51" x2="107.59" y2="28.59"/><polygon class="cls-3" points="68.66 13.33 68.66 17.43 70.07 17.43 68.66 13.33"/><line class="cls-3" x1="120.34" y1="23.01" x2="120.34" y2="17.93"/><polyline class="cls-3" points="110.07 17.93 107.59 22.05 107.59 23.01"/><line class="cls-3" x1="164.63" y1="23.01" x2="164.63" y2="17.93"/><path class="cls-3" d="M148.59,17.93a7.22,7.22,0,0,1-1.89,2.55q-2.64,2.28-7.39,2.28h-2.19V23"/><polyline class="cls-3" points="102.32 23.01 102.32 22.08 99.92 17.93"/><line class="cls-3" x1="89.98" y1="17.93" x2="89.98" y2="23.01"/><polygon class="cls-3" points="105.89 17.93 105.73 17.93 105.81 18.06 105.89 17.93"/><line class="cls-3" x1="131.95" y1="23.01" x2="131.95" y2="17.93"/><line class="cls-3" x1="125.61" y1="17.93" x2="125.61" y2="23.01"/><polygon class="cls-1" points="81.78 23.01 83.58 17.93 80.14 17.93 78.35 23.01 81.78 23.01"/><rect class="cls-1" x="64.52" y="23.51" width="4.14" height="5.08"/><rect class="cls-1" x="85.13" y="17.93" width="4.85" height="5.08"/><rect class="cls-1" x="64.52" y="17.93" width="4.14" height="5.08"/><polygon class="cls-1" points="78.17 23.51 77.59 25.18 77.02 23.51 72.15 23.51 73.89 28.59 79.81 28.59 81.61 23.51 78.17 23.51"/><rect class="cls-1" x="85.13" y="23.51" width="4.85" height="5.08"/><polygon class="cls-1" points="83.76 17.43 85.13 13.59 85.13 17.43 89.98 17.43 89.98 12.35 82.11 12.35 80.32 17.43 83.76 17.43"/><polygon class="cls-1" points="68.66 13.33 70.07 17.43 74.94 17.43 73.2 12.35 64.52 12.35 64.52 17.43 68.66 17.43 68.66 13.33"/><polygon class="cls-1" points="75.11 17.93 70.24 17.93 71.98 23.01 76.84 23.01 75.11 17.93"/><polygon class="cls-1" points="89.98 7.38 83.86 7.38 82.28 11.85 89.98 11.85 89.98 7.38"/><polygon class="cls-1" points="71.5 7.38 64.52 7.38 64.52 11.85 73.03 11.85 71.5 7.38"/><rect class="cls-1" x="64.52" y="29.09" width="4.14" height="3.59"/><polygon class="cls-1" points="74.71 30.99 78.95 30.99 79.63 29.09 74.06 29.09 74.71 30.99"/><rect class="cls-1" x="85.13" y="29.09" width="4.85" height="3.59"/><polygon class="cls-1" points="105.44 17.43 102.51 12.35 96.7 12.35 99.64 17.43 105.44 17.43"/><polyline class="cls-1" points="116.43 7.38 112.26 7.38 109.56 11.85 113.73 11.85"/><rect class="cls-1" x="102.32" y="29.09" width="5.27" height="3.59"/><polygon class="cls-1" points="99.64 7.38 93.83 7.38 96.41 11.85 102.22 11.85 99.64 7.38"/><rect class="cls-1" x="102.32" y="23.51" width="5.27" height="5.08"/><polygon class="cls-1" points="110.07 17.93 105.89 17.93 105.81 18.06 105.73 17.93 99.92 17.93 102.32 22.08 102.32 23.01 107.59 23.01 107.59 22.05 110.07 17.93"/><polygon class="cls-1" points="110.37 17.43 113.43 12.35 109.26 12.35 106.19 17.43 110.37 17.43"/><rect class="cls-1" x="120.34" y="29.09" width="5.27" height="3.59"/><rect class="cls-1" x="120.34" y="7.38" width="5.27" height="4.47"/><rect class="cls-1" x="120.34" y="17.93" width="5.27" height="5.08"/><rect class="cls-1" x="120.34" y="12.35" width="5.27" height="5.08"/><rect class="cls-1" x="120.34" y="23.51" width="5.27" height="5.08"/><rect class="cls-1" x="131.95" y="23.51" width="5.16" height="5.08"/><rect class="cls-1" x="131.95" y="12.35" width="5.16" height="5.08"/><path class="cls-1" d="M139.3,22.77q4.75,0,7.39-2.28a7.22,7.22,0,0,0,1.89-2.55h-6.07l-.11.11a6.63,6.63,0,0,1-4.27,1.26h-1V17.93H132V23h5.16v-.24Z"/><rect class="cls-1" x="131.95" y="29.09" width="5.16" height="3.59"/><path class="cls-1" d="M137.11,10.85h2.05a5.64,5.64,0,0,1,3.66,1h6.27a5,5,0,0,0-1.73-2.92q-2-1.55-6.59-1.55H132v4.47h5.16Z"/><path class="cls-1" d="M143,17.43h5.77a9.66,9.66,0,0,0,.55-3.33,10.59,10.59,0,0,0-.14-1.75h-5.89a3.7,3.7,0,0,1,.66,2.28A4.22,4.22,0,0,1,143,17.43Z"/><polygon class="cls-2" points="183.87 17.43 185.23 13.59 185.23 17.43 190.09 17.43 190.09 12.35 182.21 12.35 180.42 17.43 183.87 17.43"/><rect class="cls-2" x="185.23" y="17.93" width="4.86" height="5.08"/><rect class="cls-2" x="164.63" y="23.51" width="4.14" height="5.08"/><polygon class="cls-2" points="178.28 23.51 177.69 25.18 177.12 23.51 172.25 23.51 174 28.59 179.91 28.59 181.71 23.51 178.28 23.51"/><polygon class="cls-2" points="168.76 17.43 168.76 13.33 170.17 17.43 175.04 17.43 173.3 12.35 164.63 12.35 164.63 17.43 168.76 17.43"/><rect class="cls-2" x="164.63" y="29.09" width="4.14" height="3.59"/><rect class="cls-2" x="164.63" y="17.93" width="4.14" height="5.08"/><polygon class="cls-2" points="171.6 7.38 164.63 7.38 164.63 11.85 173.13 11.85 171.6 7.38"/><polygon class="cls-2" points="170.34 17.93 172.08 23.01 176.95 23.01 175.21 17.93 170.34 17.93"/><polygon class="cls-2" points="180.24 17.93 178.45 23.01 181.89 23.01 183.69 17.93 180.24 17.93"/><rect class="cls-2" x="185.23" y="23.51" width="4.86" height="5.08"/><polygon class="cls-2" points="174.82 30.99 179.06 30.99 179.73 29.09 174.17 29.09 174.82 30.99"/><polygon class="cls-2" points="190.09 7.38 183.96 7.38 182.39 11.85 190.09 11.85 190.09 7.38"/><rect class="cls-2" x="185.23" y="29.09" width="4.86" height="3.59"/><path class="cls-2" d="M194.94,13.67a6.37,6.37,0,0,0,1.18,3.76h8.67l-1.13-.63a12.29,12.29,0,0,1-2.77-1.93,2.61,2.61,0,0,1-.64-2.52h-5.19A7.49,7.49,0,0,0,194.94,13.67Z"/><path class="cls-2" d="M210.51,21.59a17.24,17.24,0,0,0-4.83-3.66h-9.2a17.25,17.25,0,0,0,4.66,3.5l1.69.94c.39.22.74.43,1.06.64h7.05v.5h-6.32a6.2,6.2,0,0,1,1,.87,3.06,3.06,0,0,1,.73,2.08,3,3,0,0,1-.83,2.13h5.41v.5h-6a5.34,5.34,0,0,1-2.93.74,15.14,15.14,0,0,1-4.26-.74H195v3.37a34.68,34.68,0,0,0,7.08.86,11.62,11.62,0,0,0,7.21-2,6.56,6.56,0,0,0,2.62-5.52A6.51,6.51,0,0,0,210.51,21.59Z"/><path class="cls-2" d="M195,28.59h1.24c-.41-.15-.81-.29-1.24-.47Z"/><path class="cls-2" d="M201.2,11a4.59,4.59,0,0,1,2.8-.78,18.83,18.83,0,0,1,6.14,1.45V7.62a30.8,30.8,0,0,0-6.82-.87,9.24,9.24,0,0,0-6.08,1.9,6,6,0,0,0-2.07,3.21h5.28A2.61,2.61,0,0,1,201.2,11Z"/><path class="cls-1" d="M152.23,28.59H156a2.71,2.71,0,0,0-3.75,0Z"/><path class="cls-1" d="M151.36,30.58a2.74,2.74,0,1,0,5-1.49h-4.59A2.72,2.72,0,0,0,151.36,30.58Z"/><path class="cls-1" d="M156,28.59h-3.75a2.74,2.74,0,0,0-.42.5h4.59A2.74,2.74,0,0,0,156,28.59Z"/></g></g></svg>
